<?xml version="1.0" encoding="UTF-8"?>
<svg width="298px" height="93px" viewBox="0 0 298 93" version="1.1" xmlns="http://www.w3.org/2000/svg" xmlns:xlink="http://www.w3.org/1999/xlink">
    <!-- Generator: Sketch 63.1 (92452) - https://sketch.com -->
    <title>Combined Shape</title>
    <desc>Created with Sketch.</desc>
    <g id="Page-1" stroke="none" stroke-width="1" fill="none" fill-rule="evenodd">
        <path d="M237.693129,7.48529655 C239.748089,7.48529655 241.510503,7.74233681 242.98037,8.25641732 C244.450237,8.77049784 245.656099,9.48539105 246.597955,10.401097 C247.539812,11.3168029 248.231934,12.4172565 248.674321,13.7024578 C249.072469,14.8591389 249.291451,16.132934 249.331266,17.5238431 L249.337902,17.9918171 L249.335329,29.9426818 C249.415489,29.4559991 249.511249,28.9693164 249.62261,28.4826337 C249.98033,26.9192822 250.545017,25.4454681 251.31667,24.0611914 L251.581554,23.603082 L262.526086,23.603082 L262.924594,23.6073984 C264.762657,23.6476841 266.297763,23.9699696 267.52991,24.5742549 C268.850067,25.2217035 269.914711,26.066545 270.72384,27.1087793 C271.532968,28.1510137 272.129169,29.3353709 272.51244,30.6618509 C272.895712,31.988331 273.158324,33.3463939 273.300276,34.7360397 C273.215105,35.4624454 273.115738,36.4336183 273.002176,37.6495584 C272.888614,38.8654984 272.78215,40.2235614 272.682783,41.7237471 C272.583416,43.2239329 272.505343,44.8109716 272.448562,46.4848631 C272.405976,47.7402817 272.37936,48.9868176 272.368713,50.2244709 L272.36339,51.4591633 L272.36339,52.572459 L272.366052,52.8611461 C272.371375,53.1424309 272.384683,53.4015091 272.405976,53.6383805 C272.576319,53.7331291 272.739564,53.7962948 272.895712,53.8278777 C273.05186,53.8594605 273.20091,53.875252 273.342862,53.875252 C273.79711,53.875252 274.116503,53.6857548 274.301041,53.3067605 C274.485579,52.9277662 274.577848,52.4224405 274.577848,51.7907833 C274.577848,49.1378232 274.648824,46.5085502 274.790777,43.9029644 C274.932729,41.2973785 275.11017,38.8418113 275.323098,36.5362626 C275.536027,34.2307139 275.777346,32.1462453 276.047056,30.2828566 C276.316766,28.419468 276.565182,26.9034908 276.792306,25.734925 C278.041488,24.7242735 279.453914,24.0057635 281.029586,23.5793949 C282.605258,23.1530263 284.32998,22.939842 286.203753,22.939842 C288.162696,22.939842 289.880321,23.1846092 291.356626,23.6741435 C292.832931,24.1636778 294.06082,24.8032307 295.040292,25.5928021 C296.019764,26.3823736 296.757916,27.2824851 297.25475,28.2931365 C297.751583,29.303788 298,30.3460223 298,31.4198395 C298,31.6093367 297.943219,32.2330981 297.829657,33.2911239 C297.716095,34.3491497 297.538655,35.7466912 297.297335,37.4837484 C297.056016,39.2208056 296.757916,41.2500043 296.403035,43.5713444 C296.048154,45.8926845 295.622297,48.3798346 295.125463,51.0327947 C294.62863,53.6857548 294.075015,56.4729421 293.46462,59.3943565 C292.854224,62.3157709 292.17995,65.2608725 291.441797,68.2296612 C290.192616,73.2197528 288.680823,77.2860459 286.906417,80.4285403 C285.132012,83.5710347 283.187263,86.0344977 281.072172,87.8189292 C278.957081,89.6033607 276.735525,90.8271965 274.407505,91.4904365 C272.079485,92.1536765 269.73727,92.4852966 267.38086,92.4852966 C264.967668,92.4852966 262.880968,92.1457808 261.120757,91.4667494 C259.360547,90.7877179 257.905535,89.871815 256.75572,88.7190407 C255.605905,87.5662663 254.747093,86.2318906 254.179283,84.7159133 C253.611474,83.1999361 253.327569,81.6050018 253.327569,79.9311103 C253.327569,78.3203845 253.5334,76.7807201 253.945062,75.3121172 C254.356724,73.8435143 255.045193,72.3196414 256.01047,70.7404984 C256.237594,70.6773327 256.542791,70.6299584 256.926063,70.5983756 C257.309334,70.5667927 257.671313,70.5510013 258.011999,70.5510013 C258.863714,70.5510013 259.715428,70.6062713 260.567143,70.7168113 C261.312393,70.8135338 261.927225,70.9042111 262.411637,70.9888433 L262.611258,71.0247442 L269.297218,72.3985985 L270.234104,72.5880957 L270.468325,72.6295482 C270.702547,72.6650789 270.936768,72.6828442 271.17099,72.6828442 C271.653628,72.6828442 272.058192,72.5723042 272.384683,72.3512242 C272.683966,72.1485675 272.846078,71.6937963 272.871018,70.9869105 L272.874419,70.7878727 L262.824187,68.6560298 L262.560835,68.5306853 C261.592503,68.0457568 260.59435,67.2821754 259.566378,66.2399411 C258.444954,65.1029582 257.387408,63.531711 256.393741,61.5261994 C255.400074,59.5206879 254.498676,57.0177464 253.689547,54.0173748 C252.880418,51.0170033 252.262925,47.4323488 251.837068,43.2634115 C251.070525,42.1580114 250.410446,40.7920528 249.856832,39.1655356 C249.641572,38.5331031 249.468161,37.8708276 249.3366,37.1787091 L249.337902,51.8729359 L249.341701,52.3789839 C249.3721,54.3809321 249.584892,56.1159538 249.980077,57.5840492 C250.408193,59.1744857 251.221615,60.3873945 252.420341,61.2227753 C252.443174,61.4284075 252.456874,61.6700253 252.461441,61.9476288 L252.463153,62.1625787 L252.463153,63.0059921 L252.459411,63.4838165 C252.389569,67.9050006 251.34193,71.2478993 249.316496,73.5125126 C247.218724,75.8580049 244.300396,77.0307511 240.561511,77.0307511 C238.877585,77.0307511 237.250742,76.7576458 235.680981,76.2114353 C234.11122,75.6652247 232.726976,74.7495188 231.52825,73.4643175 C230.329523,72.1791162 229.366261,70.4922896 228.638462,68.4038375 C228.45977,67.8910694 228.303013,67.3482797 228.168194,66.7754681 C228.048763,67.5134143 227.880063,68.2328779 227.664277,68.933983 C227.169828,70.5404846 226.42109,71.9461735 225.418065,73.1510497 C224.415039,74.3559259 223.157726,75.3037619 221.646124,75.9945576 C220.134522,76.6853533 218.375695,77.0307511 216.369644,77.0307511 C214.391847,77.0307511 212.590639,76.5889632 210.96602,75.7053873 C209.341402,74.8218114 207.921626,73.5607076 206.706694,71.922076 C205.491761,70.2834443 204.502863,68.2913824 203.739998,65.94589 C203.035816,63.7808202 202.548305,61.3693567 202.277465,58.7114996 L202.214269,58.0419021 L200.179964,59.0539981 L200.188205,59.6042249 C200.215674,60.5279633 200.311817,61.4851706 200.476633,62.4758465 C200.674413,63.6646577 200.935765,64.8293714 201.260689,65.9699875 C201.585612,67.1106037 201.974108,68.2110573 202.426176,69.2713483 C202.878244,70.3316394 203.358566,71.2794753 203.867142,72.1148562 C202.623956,73.5928377 201.0064,74.7816488 199.014476,75.6812897 C197.022552,76.5809306 194.75515,77.0307511 192.212268,77.0307511 C190.940827,77.0307511 189.648195,76.8219059 188.334373,76.4042155 C187.020551,75.9865251 185.833873,75.3519569 184.774339,74.5005111 C183.714805,73.6490652 182.845987,72.5887742 182.167885,71.3196379 C181.541945,70.1481275 181.2049,68.7781333 181.156751,67.2096554 L181.150732,66.8134009 L181.151714,63.488825 C180.974869,64.0432549 180.774466,64.5790817 180.550505,65.0963056 C179.485916,67.5549074 177.9742,69.5931676 176.015356,71.2110862 C174.056513,72.8290048 171.700223,74.0424438 168.946487,74.8514031 C166.19275,75.6603624 163.126734,76.064842 159.748439,76.064842 C156.625645,76.064842 153.76545,75.763465 151.167854,75.160711 C148.570257,74.557957 146.348815,73.6538261 144.503528,72.4483181 C142.65824,71.2428101 141.224594,69.7279942 140.202589,67.9038703 L140.168991,67.8434529 L140.168991,67.8434529 L140.131273,67.9734753 L140.007425,68.35714 C139.408062,70.1234883 138.566099,71.5767113 137.481537,72.7168089 C136.396975,73.8569065 135.105489,74.6999364 133.607081,75.2458987 C132.108673,75.7918609 130.474695,76.064842 128.705146,76.064842 C127.335173,76.064842 125.900982,75.8079186 124.402574,75.2940718 C122.904165,74.780225 121.534192,73.9131085 120.292654,72.6927224 C119.051116,71.4723362 118.023636,69.8424784 117.210214,67.8031489 L117.170817,67.7031631 L117.170817,67.7031631 C117.054759,68.1695569 116.9175,68.6201666 116.760811,69.0544706 C116.129049,70.8055574 115.267556,72.2755063 114.176331,73.4643175 C113.085106,74.6531287 111.814403,75.5447371 110.364223,76.1391427 C108.914042,76.7335483 107.370533,77.0307511 105.733696,77.0307511 C104.010709,77.0307511 102.366692,76.7656783 100.801646,76.2355328 C99.2365999,75.7053873 97.8582106,74.8378764 96.6664781,73.6330002 C95.4747456,72.428124 94.5271029,70.8537524 93.82355,68.9098855 C93.1199971,66.9660185 92.7682206,64.5803636 92.7682206,61.7529208 C92.7682206,60.2428093 92.8184744,58.8130229 92.9189819,57.4635615 C93.0194895,56.1141002 93.1343553,54.8529964 93.2635793,53.6802502 C93.3928033,52.5075041 93.5148482,51.4231155 93.629714,50.4270845 C93.7445797,49.4310535 93.8020126,48.5153476 93.8020126,47.6799667 C93.8020126,46.1377252 93.6512513,45.0854667 93.3497286,44.5231911 C93.0482059,43.9609155 92.5672055,43.6797777 91.9067272,43.6797777 C91.5375158,43.6797777 91.1894022,43.7742007 90.8623863,43.9630466 L90.7006365,44.0653381 L91.2606072,51.921131 L91.1242041,52.8877095 C91.0380548,53.5338801 90.9614776,54.1836208 90.8944725,54.8369314 C90.793965,55.8168974 90.7149948,56.7406358 90.6575619,57.6081467 C90.600129,58.4756575 90.5570543,59.2628433 90.5283379,59.969704 C90.4996214,60.6765647 90.4852632,61.2549053 90.4852632,61.7047258 C90.4852632,64.2108683 90.7078156,66.2832553 91.1529205,67.921887 C91.5980254,69.5605186 92.1077424,70.97424 92.6820713,72.1630512 C91.4185477,73.6410327 89.7745312,74.8218114 87.7500218,75.7053873 C85.7255124,76.5889632 83.4210176,77.0307511 80.8365375,77.0307511 C79.5442975,77.0307511 78.2305201,76.8219059 76.8952054,76.4042155 C75.5598907,75.9865251 74.3538,75.3519569 73.2769333,74.5005111 C72.2000666,73.6490652 71.3170359,72.5887742 70.6278412,71.3196379 C69.9916615,70.1481275 69.6491031,68.7781333 69.6001662,67.2096554 L69.5940491,66.8134009 L69.594522,42.2299502 C69.3920881,43.4004104 69.1628142,44.5985795 68.9067005,45.8244574 C68.4484681,48.017768 67.9329566,50.2030149 67.3601661,52.3801982 C66.7873755,54.5573814 66.2289048,56.5168464 65.6847538,58.258593 C64.882847,60.7744493 64.1525391,62.9919508 63.49383,64.9110975 C62.8351209,66.8302442 62.1692519,68.4832908 61.496223,69.8702372 C60.8231942,71.2571836 60.1000461,72.4102844 59.3267789,73.3295395 C58.5535117,74.2487947 57.6370469,74.9825861 56.5773844,75.5309137 C55.5177219,76.0792414 54.2719025,76.4662962 52.8399262,76.6920781 C51.4079499,76.9178601 49.7182178,77.0307511 47.77073,77.0307511 C47.1120209,77.0307511 46.3602333,76.9904329 45.5153673,76.9097965 C44.6705013,76.8291601 43.839955,76.7243327 43.0237285,76.5953144 C42.207502,76.4662962 41.4485546,76.3211506 40.7468862,76.1598778 C40.0452178,75.9986049 39.5082267,75.8373321 39.1359128,75.6760593 C38.820878,75.0954771 38.4772037,74.377813 38.1048899,73.5230669 C37.732576,72.6683209 37.3674221,71.7813203 37.009428,70.8620651 C36.6514339,69.94281 36.3149195,69.0396821 35.9998847,68.1526815 C35.6848499,67.2656809 35.4414139,66.5157622 35.2695768,65.9029254 C34.7254257,65.9996891 34.3173125,66.160962 34.045237,66.3867439 C33.7731615,66.6125259 33.6371237,66.9834534 33.6371237,67.4995265 C33.6371237,67.6607993 33.680083,67.9107722 33.7660016,68.2494452 C33.8519202,68.5881181 33.9593184,68.9671093 34.0881963,69.3864187 C34.2170742,69.8057281 34.3602718,70.2492284 34.5177892,70.7169196 C34.6753066,71.1846108 34.8399839,71.6281111 35.011821,72.0474205 C34.7827048,72.5957481 34.5392688,73.184394 34.2815131,73.813358 C34.0237574,74.4423221 33.680083,75.0793498 33.2504901,75.7244411 C32.3340253,76.0792414 31.1025257,76.3856598 29.5559912,76.6436963 C28.0094568,76.9017328 26.2051666,77.0307511 24.1431207,77.0307511 C22.1097144,77.0307511 20.1407469,76.8775419 18.2362184,76.5711235 C16.3316899,76.2647051 14.5918387,75.7566957 13.0166647,75.0470952 C12.0142813,73.4666214 11.0333775,71.7168112 10.0739534,69.7976644 C9.11452927,67.8785177 8.20522431,65.6610162 7.34603852,63.1451599 C6.48685273,60.6293037 5.67778611,57.7586472 4.91883866,54.5331905 C4.15989121,51.3077338 3.46538269,47.5823313 2.83531311,43.356983 C2.0620459,42.2280732 1.39617691,40.8249995 0.837706147,39.147762 C0.279235382,37.4705245 0,35.5997596 0,33.5354673 C0,31.7614661 0.200476685,29.9794013 0.601430054,28.1892728 C0.962288087,26.5781572 1.53192827,25.0650148 2.31035059,23.6498457 L2.57755738,23.1817513 L12.9737055,23.1817513 L13.4145632,23.1856218 C15.4442783,23.2217469 17.0872961,23.5107478 18.3436167,24.0526246 C19.6896744,24.6332068 20.7350171,25.4315073 21.4796448,26.4475262 C22.2242725,27.463545 22.7183043,28.6650277 22.9617403,30.0519741 C23.2051763,31.4389204 23.3268942,32.9387578 23.3268942,34.5514862 C23.3268942,35.680396 23.3125745,36.7528604 23.283935,37.7688792 C23.2552954,38.7848981 23.219496,39.8573625 23.1765367,40.9862723 C23.1335774,42.1151822 23.097778,43.3408557 23.0691385,44.663293 C23.040499,45.9857302 23.0261792,47.5016949 23.0261792,49.2111869 C23.0261792,49.953042 23.0333391,50.6465152 23.0476589,51.2916065 C23.0619786,51.9366979 23.1192577,52.5011528 23.219496,52.9849713 C23.3197344,53.4687898 23.4844116,53.847781 23.7135279,54.1219448 C23.9140045,54.3618381 24.1802626,54.4967781 24.5123021,54.5267648 L24.6586322,54.5331905 L25.0237862,54.5331905 L25.1217871,54.5271428 C25.2211304,54.5150473 25.3245012,54.4848087 25.4318994,54.4364268 C25.3746204,53.7913355 25.338821,53.0414168 25.3245012,52.1866708 C25.3101814,51.3319247 25.3030216,50.4207332 25.3030216,49.4530962 C25.3030216,48.1629135 25.3245012,46.8404763 25.3674605,45.4857844 C25.4104198,44.1310926 25.4533791,42.5667461 25.4963384,40.7927449 C25.5392977,39.0187437 25.5894168,36.9625151 25.6466959,34.624059 C25.7039749,32.2856028 25.7326145,29.4875191 25.7326145,26.2298079 C27.2505094,25.0363889 28.8256833,24.1897065 30.4581363,23.6897607 C32.0905893,23.1898149 33.7660016,22.939842 35.4843732,22.939842 C38.3769654,22.939842 40.7540461,23.5768697 42.6156153,24.8509251 C44.4771845,26.1249805 45.7659632,27.9070453 46.4819513,30.1971196 C46.4819513,30.8744655 46.4533118,31.8017843 46.3960328,32.979076 C46.3387537,34.1563677 46.259995,35.4707413 46.1597567,36.9221969 C46.0595183,38.3736524 45.9234806,39.9218716 45.7516434,41.5668545 C45.5798063,43.2118375 45.3864894,44.8568204 45.171693,46.5018033 C44.9568966,48.1467862 44.7134606,49.72726 44.4413851,51.2432247 C44.1693096,52.7591893 43.8757544,54.1138811 43.5607196,55.3073001 C43.7611963,55.4363184 43.961673,55.5169548 44.1621497,55.5492094 C44.3626264,55.581464 44.5344635,55.5975912 44.6776612,55.5975912 C45.1072541,55.5975912 45.4294487,55.3476183 45.6442452,54.8476725 C45.8590416,54.3477268 46.080998,53.6784445 46.3101142,52.8398257 C46.5965094,51.7109159 46.8614251,50.3481604 47.104861,48.7515594 C47.348297,47.1549583 47.5630935,45.4696572 47.7492504,43.695656 C47.9354073,41.9216548 48.1000846,40.115399 48.2432822,38.2768887 C48.3864798,36.4383784 48.5153577,34.712759 48.6299158,33.1000307 C48.7444739,31.4873023 48.8303925,30.0600377 48.8876715,28.8182369 C48.9449506,27.576436 48.9879099,26.6491172 49.0165494,26.0362805 C50.1048514,25.100898 51.5511475,24.3509793 53.3554377,23.7865244 C55.1597278,23.2220695 57.0642563,22.939842 59.0690232,22.939842 C60.7873948,22.939842 62.3410891,23.2140058 63.7301061,23.7623335 C65.1191231,24.3106611 66.3148234,25.0847707 67.3172068,26.0846623 C68.2284644,26.9936546 68.9503699,28.0692512 69.482923,29.3114518 L69.594,29.5832966 L69.5940491,10.5697796 L69.9307195,10.3557468 C71.1887591,9.58139068 72.7061939,8.92177674 74.483024,8.37690494 C76.421384,7.78249935 78.4099979,7.48529655 80.4488655,7.48529655 C81.9421207,7.48529655 83.3994803,7.66201173 84.8209443,8.01544208 C86.2424084,8.36887244 87.505932,8.92311549 88.6115151,9.67817124 C89.7170983,10.433227 90.6073081,11.413193 91.2821445,12.6180692 C91.9050705,13.7302626 92.2404922,15.0546283 92.2884096,16.5911663 L92.2943993,16.979721 L92.2943993,21.5582506 L91.8285547,21.5972232 C90.5948111,21.7193966 89.4291361,21.9875436 88.3315298,22.401664 C87.0967226,22.8675494 86.0198559,23.397695 85.1009297,23.9921006 C84.1820034,24.5865062 83.4569132,25.1969768 82.9256589,25.8235124 C82.3944047,26.450048 82.1287776,27.0042911 82.1287776,27.4862416 C82.1287776,27.8718019 82.2508225,28.1931023 82.4949122,28.4501425 C82.739002,28.7071828 83.0046292,28.8678329 83.2917936,28.932093 C83.8086896,28.2573623 84.4691679,27.5906642 85.2732283,26.9319985 C86.0772888,26.2733328 87.0249315,25.6789272 88.1161564,25.1487817 C89.2073814,24.6186362 90.4565467,24.1929133 91.8636526,23.8716129 C93.2707584,23.5503126 94.8501629,23.3896625 96.6018661,23.3896625 C97.7505239,23.3896625 98.9925101,23.5021176 100.327825,23.7270278 C101.66314,23.951938 103.005633,24.3535634 104.355306,24.931904 C105.704979,25.5102446 106.997219,26.2733328 108.232026,27.2211688 C109.466834,28.1690047 110.565238,29.3658484 111.527239,30.8116999 C112.48924,32.2575513 113.257404,33.976508 113.831733,35.96857 C114.406062,37.960632 114.693227,40.2739943 114.693227,42.908657 C114.693227,44.3545084 114.671689,45.89675 114.628615,47.5353816 C114.58554,49.1740132 114.564003,50.7644498 114.564003,52.3066914 C114.564003,54.5236636 114.779376,56.3550754 115.210123,57.8009269 C115.396901,58.4278709 115.656571,58.9974238 115.989132,59.5095856 L115.990082,31.3066327 C116.119027,31.2123219 117.294459,31.5850762 119.044328,31.5550438 C121.115348,31.5194996 124.191727,30.1084227 126.965593,30.1084227 C129.713925,30.1084227 132.548919,31.7067282 134.622011,31.7461013 C136.438316,31.7805973 137.662107,31.1165858 137.773095,31.0817147 L137.781218,31.0808433 L137.781218,50.9184641 C137.781218,53.1344284 137.995277,55.0372674 138.423393,56.6269809 C138.589648,57.2443298 138.81401,57.8047704 139.096478,58.3083027 C139.273599,57.6616828 139.485948,57.0618227 139.73417,56.5070613 C140.046449,55.8091356 140.401312,55.1984507 140.798759,54.6750064 C141.196205,54.1515622 141.593651,53.7470825 141.991098,53.4615675 C142.672435,54.0960454 143.559592,54.7384542 144.65257,55.388794 C145.745548,56.0391339 146.994665,56.6180949 148.399923,57.1256772 C149.80518,57.6332595 151.33109,58.0456702 152.977654,58.3629091 C154.624219,58.680148 156.370144,58.8387675 158.215431,58.8387675 C159.067102,58.8387675 159.613591,58.7118719 159.854898,58.4580808 C160.096205,58.2042896 160.216858,57.8553268 160.216858,57.4111923 C160.216858,57.1574011 160.174275,56.90361 160.089108,56.6498188 C159.839284,56.6751979 159.634883,56.6904254 159.475905,56.6955012 L159.365187,56.6974047 L158.896768,56.6974047 L158.204342,56.6907955 C155.676831,56.6423285 153.274556,56.3272926 150.997519,55.7456878 C148.513479,55.11121 146.33462,54.1039763 144.460944,52.7239869 C142.587268,51.3439975 141.096843,49.5912524 139.989671,47.4657515 C138.882499,45.3402506 138.328912,42.7706152 138.328912,39.7568452 C138.328912,37.2506576 138.783137,34.8634346 139.691586,32.5951761 C140.600035,30.3269177 141.976903,28.3362434 143.822191,26.6231531 C145.667478,24.9100628 147.981184,23.5459354 150.76331,22.5307707 C153.545435,21.5156061 156.810174,21.0080238 160.557527,21.0080238 C162.402814,21.0080238 164.177129,21.1269884 165.880471,21.3649176 C167.583813,21.6028468 169.180696,21.9280168 170.67112,22.3404274 C172.161545,22.752838 173.538413,23.2366274 174.801725,23.7917955 C176.065037,24.3469637 177.165112,24.9259247 178.10195,25.5286787 C178.385841,26.1948805 178.591661,27.0831495 178.719412,28.1934858 C178.847163,29.3038221 178.911038,30.3348487 178.911038,31.2865655 C178.911038,33.4755142 178.627148,35.2996381 178.059367,36.7589372 C177.491586,38.2182364 176.824444,39.3602966 176.05794,40.1851178 C175.404992,39.7727072 174.652683,39.3840895 173.801012,39.0192647 C172.949341,38.6544399 172.0196,38.32927 171.011789,38.0437549 C170.003978,37.7582399 168.939389,37.5282417 167.818022,37.3537603 C166.696656,37.1792788 165.553997,37.0920381 164.390047,37.0920381 C163.935822,37.0920381 163.495792,37.0999691 163.069956,37.115831 C162.644121,37.131693 162.267966,37.1951408 161.941492,37.3061744 C161.615018,37.417208 161.35242,37.5837585 161.153697,37.8058257 C160.983362,37.9961691 160.886028,38.2564345 160.861695,38.586622 L160.855612,38.7575426 L160.855612,39.0192647 L160.860343,39.1223673 C160.866652,39.1858151 160.879269,39.2386883 160.898195,39.2809868 C161.284286,39.2556077 161.624955,39.2403802 161.9202,39.2353044 L162.133118,39.233401 L163.155123,39.233401 L163.766067,39.2406845 C164.993169,39.2698187 166.251556,39.3863555 167.541229,39.5902948 C169.045848,39.828224 170.500786,40.2168417 171.906044,40.7561479 C173.311301,41.2954541 174.638488,42.0092417 175.887606,42.8975107 C177.136723,43.7857798 178.222604,44.8643922 179.145247,46.1333479 C179.96523,47.2611097 180.633859,48.5642701 181.151132,50.0428291 L181.150732,10.5697796 L181.481984,10.3557468 C182.719775,9.58139068 184.212786,8.92177674 185.961017,8.37690494 C187.868178,7.78249935 189.824784,7.48529655 191.830836,7.48529655 C193.300056,7.48529655 194.733959,7.66201173 196.132544,8.01544208 C197.531129,8.36887244 198.774315,8.92311549 199.862104,9.67817124 C200.949892,10.433227 201.825773,11.413193 202.489748,12.6180692 C203.102648,13.7302626 203.432671,15.0546283 203.479817,16.5911663 L203.48571,16.979721 L203.48571,22.0883962 L203.478646,22.885697 C203.440974,24.9959657 203.252613,26.979301 202.913562,28.8357029 C202.532129,30.924155 202.058871,32.8519569 201.493786,34.6191087 C201.296006,34.972539 200.999337,35.3902295 200.603777,35.8721799 C200.208218,36.3541304 199.819722,36.8521459 199.43829,37.3662264 C199.056858,37.8803069 198.72487,38.3783224 198.442328,38.8602729 C198.159786,39.3422234 198.018514,39.7438488 198.018514,40.0651491 C198.018514,40.6434897 198.357565,41.1254402 199.035667,41.5110006 C200.194091,40.2900594 201.20418,39.0369881 202.065934,37.7517868 C202.927689,36.4665855 203.697617,35.0769616 204.375719,33.5829151 C205.05382,32.0888687 205.654223,30.466302 206.176927,28.7152153 C206.69963,26.9641285 207.201143,25.0122291 207.681465,22.8595169 C208.04877,22.7952569 208.507901,22.7068993 209.058859,22.5944442 C209.609817,22.481989 210.174902,22.3695339 210.754114,22.2570788 C211.333326,22.1446237 211.884283,22.0482336 212.406987,21.9679085 C212.92969,21.8875835 213.360567,21.8474209 213.699618,21.8474209 C215.818686,21.8474209 217.732911,22.1285587 219.442293,22.6908343 C221.151674,23.2531098 222.599704,24.0884907 223.786382,25.1969768 C224.973061,26.3054629 225.891323,27.6709892 226.541171,29.2935559 C227.191018,30.9161225 227.515942,32.7876969 227.515942,34.908279 C227.515942,36.900341 227.219273,38.7156878 226.625934,40.3543194 C226.032595,41.9929511 225.220285,43.4629 224.189005,44.7641663 C223.157726,46.0654326 221.963984,47.1899838 220.60778,48.1378197 C219.251577,49.0856557 217.81061,49.8648089 216.284881,50.4752795 C217.047746,50.9893601 217.796483,51.431148 218.531094,51.8006434 C219.265704,52.1701387 220.014441,52.4994716 220.777306,52.7886419 C221.54017,53.0778121 222.35248,53.3348524 223.214234,53.5597626 C224.075988,53.7846729 225.043696,53.9935181 226.117357,54.1862983 C226.709203,55.4077267 227.186257,56.6484941 227.548519,57.9086004 L227.546765,10.5697796 L227.661821,10.4937218 C227.949016,10.307468 228.367322,10.0597154 228.916738,9.75046382 C229.544643,9.39703346 230.293847,9.05163562 231.164351,8.71427028 C232.034854,8.37690494 233.026658,8.08773465 234.139761,7.84675941 C235.252864,7.60578417 236.43732,7.48529655 237.693129,7.48529655 Z M126.882559,13.9103448 L127.072557,13.9113793 C132.010575,13.9797414 135.058554,16.7284483 136.170471,19.06 C136.222744,19.1703448 136.320515,19.2987069 136.422511,19.4348276 C136.541403,19.5917241 136.659767,19.7516379 136.759122,19.922931 C138.738746,23.3363793 138.246194,27.284569 135.660494,28.7236207 C135.191791,28.9844828 134.695014,29.1169828 134.182486,29.1169828 C132.988199,29.1169828 132.031667,28.4224249 130.865893,27.6697525 C130.10546,27.1795801 129.399844,26.6880988 128.504591,26.3009436 C128.378923,26.2584436 127.810958,25.9145761 126.991915,25.9145761 C126.303117,25.9145761 125.636879,26.2056897 125.534091,26.2388793 C124.617013,26.6115517 123.79137,27.1094828 122.99204,27.592069 C121.734831,28.3493103 120.649932,29.0031034 119.464973,29.0031034 C118.890314,29.0031034 118.342584,28.8421552 117.834984,28.5227586 C116.578655,27.7312931 115.840399,26.3438793 115.759788,24.6165517 C115.682874,22.989569 116.204203,21.2351724 117.226708,19.6769828 C117.324215,19.527931 117.438267,19.3907759 117.553551,19.2567241 C117.65097,19.1423276 117.742933,19.0341379 117.784734,18.9507759 C118.995126,16.5135345 122.020401,13.9103448 126.882559,13.9103448 Z M140.413353,9.71844828 C142.611049,9.71844828 144.332209,11.9513793 144.332209,14.8018103 C144.332209,17.6510345 142.609993,19.8841379 140.413353,19.8841379 C138.216537,19.8841379 136.495377,17.6510345 136.495377,14.8018103 C136.495377,11.9512931 138.215481,9.71844828 140.413353,9.71844828 Z M113.918416,9.71844828 C116.11532,9.71844828 117.83648,11.9513793 117.83648,14.8018103 C117.83648,17.6510345 116.115408,19.8841379 113.918416,19.8841379 C111.721424,19.8841379 110,17.6510345 110,14.8018103 C110,11.9513793 111.721424,9.71844828 113.918416,9.71844828 Z M121.672701,-1.24344979e-14 C124.414959,-1.24344979e-14 126.645568,2.93310345 126.645568,6.53801724 C126.645568,10.1431897 124.415047,13.075431 121.672701,13.075431 C118.931148,13.075431 116.700363,10.1431897 116.700363,6.53801724 C116.700363,2.93301724 118.931148,-1.24344979e-14 121.672701,-1.24344979e-14 Z M132.246774,-1.24344979e-14 C134.9878,-1.24344979e-14 137.218849,2.93310345 137.218849,6.53801724 C137.218849,10.1431897 134.9878,13.075431 132.246774,13.075431 C129.504165,13.075431 127.273644,10.1431897 127.273644,6.53801724 C127.273644,2.93301724 129.504165,-1.24344979e-14 132.246774,-1.24344979e-14 Z" id="Combined-Shape" fill="#FFFFFF" fill-rule="nonzero"></path>
    </g>
</svg>