<?xml version="1.0" encoding="UTF-8"?>
<svg width="512px" height="488px" viewBox="0 0 512 488" version="1.1" xmlns="http://www.w3.org/2000/svg" xmlns:xlink="http://www.w3.org/1999/xlink">
    <!-- Generator: Sketch 63.1 (92452) - https://sketch.com -->
    <title>whiskly-icon</title>
    <desc>Created with Sketch.</desc>
    <g id="Page-1" stroke="none" stroke-width="1" fill="none" fill-rule="evenodd">
        <g id="whiskly-icon" fill-rule="nonzero">
            <path d="M418.132812,169.390625 C425.304688,167.550781 432.792969,167.320312 440.0625,168.710938 C450.339844,170.550781 460.230469,174.097656 469.332031,179.207031 C452.265625,119.472656 401.066406,128.003906 401.066406,128.003906 C392.535156,102.40625 452.265625,85.339844 452.265625,85.339844 C436.214844,77.082031 417.972656,74.097656 400.128906,76.804688 C385.039062,79.027344 370.71875,84.882812 358.398438,93.871094 C355.984375,90.230469 355.125,85.777344 356.011719,81.5 C360.191406,56.496094 409.601562,25.605469 409.601562,25.605469 C399.738281,24.476562 389.789062,24.363281 379.902344,25.265625 C347.933594,27.375 318.382812,43.019531 298.667969,68.273438 C296.777344,60.710938 296.425781,52.847656 297.644531,45.148438 C300.042969,31.464844 306.320312,18.757812 315.734375,8.539062 C302.484375,11.203125 289.949219,16.640625 278.953125,24.496094 L278.871094,24.582031 C267.121094,33.03125 258.960938,45.574219 256,59.738281 C254.101562,50.136719 249.683594,41.214844 243.199219,33.882812 C230.496094,20.863281 214.121094,12.023438 196.265625,8.539062 C200.710938,13.316406 204.472656,18.6875 207.445312,24.496094 L207.53125,24.582031 C214.808594,37.925781 216.875,53.492188 213.332031,68.273438 C206.566406,59.175781 198.246094,51.347656 188.757812,45.148438 C164.523438,29.066406 135.402344,22.027344 106.496094,25.265625 C105.128906,25.351562 103.765625,25.433594 102.398438,25.605469 C102.398438,25.605469 170.667969,68.273438 153.601562,93.871094 C146.519531,88.621094 138.695312,84.453125 130.390625,81.5 C107.351562,72.753906 81.6875,74.148438 59.734375,85.339844 C59.734375,85.339844 119.464844,102.40625 110.933594,128.003906 C82.503906,124.675781 55.601562,141.628906 46.335938,168.710938 C44.917969,172.136719 43.695312,175.640625 42.667969,179.207031 C50.664062,174.679688 59.292969,171.375 68.265625,169.390625 C83.226562,164.960938 99.414062,168.683594 110.933594,179.207031 C110.933594,179.207031 8.535156,196.273438 8.535156,298.671875 C9.066406,313.054688 11.445312,327.308594 15.617188,341.082031 C19.886719,356.136719 26.113281,370.570312 34.132812,384.003906 C34.132812,384.003906 34.132812,378.886719 34.816406,371.375 C36.179688,357.46875 40.105469,335.367188 51.199219,324.273438 C51.199219,324.273438 46.421875,343.472656 62.039062,374.703125 C68.429688,387.199219 76.246094,398.910156 85.332031,409.605469 C85.332031,409.605469 76.800781,366.9375 110.933594,341.339844 L401.066406,341.339844 C412.230469,349.652344 420.40625,361.359375 424.363281,374.703125 C427.6875,386.027344 428.476562,397.945312 426.667969,409.605469 C436.578125,397.984375 444.953125,385.136719 451.585938,371.375 C465.238281,342.105469 460.800781,324.273438 460.800781,324.273438 C465.253906,329.125 468.65625,334.847656 470.785156,341.082031 C475.300781,354.949219 477.6875,369.421875 477.867188,384.003906 C493.28125,358.097656 502.074219,328.789062 503.464844,298.671875 C503.464844,196.273438 401.066406,179.207031 401.066406,179.207031 C405.769531,174.460938 411.667969,171.070312 418.132812,169.390625 Z" id="Path" fill="#393569"></path>
            <g id="Group" transform="translate(330.000000, 24.000000)" fill="#7C74B0">
                <path d="M79.601562,1.605469 C79.601562,1.605469 30.191406,32.496094 26.011719,57.5 C17.703125,60.453125 9.882812,64.621094 2.800781,69.871094 C-14.265625,44.273438 54,1.605469 54,1.605469 C52.632812,1.433594 51.269531,1.351562 49.902344,1.265625 C59.789062,0.363281 69.738281,0.476562 79.601562,1.605469 Z" id="Path"></path>
                <path d="M139.332031,155.207031 C130.230469,150.097656 120.339844,146.550781 110.0625,144.710938 C100.796875,117.628906 73.894531,100.675781 45.464844,104.003906 C36.933594,78.40625 96.667969,61.339844 96.667969,61.339844 C88.320312,57.125 79.367188,54.246094 70.128906,52.804688 C87.972656,50.097656 106.214844,53.082031 122.265625,61.339844 C122.265625,61.339844 62.535156,78.40625 71.066406,104.003906 C71.066406,104.003906 122.265625,95.472656 139.332031,155.207031 L139.332031,155.207031 Z" id="Path"></path>
                <path d="M173.464844,274.671875 C172.171997,304.789062 163.997284,334.097656 149.667023,360.003906 C149.49997,345.421875 147.281067,330.949219 143.082947,317.082031 C146.957855,303.308594 149.173127,289.054688 149.667023,274.671875 C149.667023,172.273438 54.464844,155.207031 54.464844,155.207031 C65.1780393,144.683594 80.2273557,140.960938 94.1327205,145.390625 C88.1224368,147.070312 82.6387327,150.460938 78.2662962,155.207031 C78.2662962,155.207031 173.464844,172.273438 173.464844,274.671875 Z" id="Path"></path>
                <path d="M96.667969,385.605469 C98.476562,373.945312 97.6875,362.027344 94.363281,350.703125 C109.980469,319.472656 105.199219,300.273438 105.199219,300.273438 C116.292969,311.367188 120.21875,333.46875 121.585938,347.375 C114.953125,361.136719 106.578125,373.984375 96.667969,385.605469 L96.667969,385.605469 Z" id="Path"></path>
            </g>
            <path d="M204.800781,221.871094 C204.800781,236.011719 193.339844,247.472656 179.199219,247.472656 C165.0625,247.472656 153.601562,236.011719 153.601562,221.871094 C153.601562,207.734375 165.0625,196.273438 179.199219,196.273438 C193.339844,196.273438 204.800781,207.734375 204.800781,221.871094 Z" id="Path" fill="#FFFFFF"></path>
            <path d="M358.398438,221.871094 C358.398438,236.011719 346.9375,247.472656 332.800781,247.472656 C318.660156,247.472656 307.199219,236.011719 307.199219,221.871094 C307.199219,207.734375 318.660156,196.273438 332.800781,196.273438 C346.9375,196.273438 358.398438,207.734375 358.398438,221.871094 Z" id="Path" fill="#FFFFFF"></path>
            <path d="M298.667969,281.605469 C312.214844,279.777344 325.96875,280.089844 339.421875,282.527344 C358.042969,285.164062 375.054688,294.507812 387.269531,308.808594 C395.476562,319.476562 400.160156,332.4375 400.675781,345.886719 C401.289062,361.128906 394.886719,373.578125 389.929688,387.554688 C386.222656,397.335938 384.214844,407.679688 384,418.140625 C384,438.285156 393.484375,457.253906 409.601562,469.339844 C409.601562,469.339844 349.867188,469.339844 341.332031,426.671875 C341.332031,426.671875 298.667969,435.207031 315.734375,477.871094 C315.734375,477.871094 281.601562,486.40625 256,443.738281 C230.398438,486.40625 196.265625,477.871094 196.265625,477.871094 C213.332031,435.207031 170.667969,426.671875 170.667969,426.671875 C162.132812,469.339844 102.398438,469.339844 102.398438,469.339844 C118.515625,457.253906 128,438.285156 128,418.140625 C127.769531,407.679688 125.75,397.332031 122.027344,387.554688 C117.070312,373.578125 110.667969,361.101562 111.28125,345.886719 C111.796875,332.4375 116.480469,319.476562 124.6875,308.808594 C136.902344,294.507812 153.917969,285.164062 172.535156,282.527344 C186.003906,280.082031 199.769531,279.773438 213.332031,281.605469 L298.667969,281.605469 Z" id="Path" fill="#7C74B0"></path>
            <path d="M204.898437,473.875227 C193.886719,473.582258 182.980469,471.625227 172.554687,468.070539 C160.460937,456.062727 153.667969,439.718977 153.695313,422.676008 C153.894531,412.230695 155.886719,401.894758 159.585937,392.125227 C164.621094,378.129133 171.019531,365.672102 170.335937,350.398664 C169.867187,336.953352 165.179687,323.996321 156.941406,313.363508 C144.757813,299.054914 127.757813,289.703352 109.152344,287.078352 C105.824219,286.480695 102.410156,285.968977 99,285.629133 C110.925781,284.445539 122.960937,284.933821 134.753906,287.078352 C153.359375,289.703352 170.359375,299.054914 182.539063,313.363508 C190.777344,323.996321 195.464844,336.953352 195.9375,350.398664 C196.621094,365.672102 190.21875,378.129133 185.183594,392.125227 C181.488281,401.894758 179.496094,412.230695 179.296875,422.676008 C179.296875,442.820539 188.78125,461.789289 204.898437,473.875227 L204.898437,473.875227 Z" id="Path" fill="#393569" transform="translate(151.949219, 379.437613) scale(-1, 1) translate(-151.949219, -379.437613) "></path>
            <path d="M298.667969,281.605469 C298.667969,294.148438 279.550781,315.738281 256,315.738281 C232.449219,315.738281 213.332031,294.148438 213.332031,281.605469 C213.34375,280.113281 213.632812,278.636719 214.1875,277.253906 C218.199219,268.039062 235.347656,264.539062 256,264.539062 C279.550781,264.539062 298.667969,269.0625 298.667969,281.605469 L298.667969,281.605469 Z" id="Path" fill="#393569"></path>
            <path d="M196.265625,221.871094 C196.265625,231.296875 188.625,238.9375 179.199219,238.9375 C169.773438,238.9375 162.132812,231.296875 162.132812,221.871094 C162.132812,212.445312 169.773438,204.804688 179.199219,204.804688 C188.625,204.804688 196.265625,212.445312 196.265625,221.871094 Z" id="Path" fill="#393569"></path>
            <path d="M194.199219,213.339844 C194.199219,218.050781 190.378906,221.871094 185.667969,221.871094 C180.953125,221.871094 177.132812,218.050781 177.132812,213.339844 C177.132812,208.625 180.953125,204.804688 185.667969,204.804688 C190.378906,204.804688 194.199219,208.625 194.199219,213.339844 Z" id="Path" fill="#FFFFFF"></path>
            <path d="M349.867188,221.871094 C349.867188,231.296875 342.226562,238.9375 332.800781,238.9375 C323.375,238.9375 315.734375,231.296875 315.734375,221.871094 C315.734375,212.445312 323.375,204.804688 332.800781,204.804688 C342.226562,204.804688 349.867188,212.445312 349.867188,221.871094 L349.867188,221.871094 Z" id="Path" fill="#393569"></path>
            <path d="M340.265625,221.871094 C335.554688,221.871094 331.734375,218.050781 331.734375,213.339844 C331.734375,208.625 335.554688,204.804688 340.265625,204.804688 C344.980469,204.804688 348.800781,208.625 348.800781,213.339844 C348.800781,218.050781 344.980469,221.871094 340.265625,221.871094 Z" id="Path" fill="#FFFFFF"></path>
            <path d="M36.410156,392.222656 C40.105469,391.199219 42.664062,387.839844 42.667969,384.003906 C42.804688,374.753906 43.820312,365.535156 45.703125,356.476562 C52.53125,378.09375 63.792969,398.050781 78.769531,415.066406 C81.273438,418.078125 85.503906,419.003906 89.03125,417.308594 C92.5625,415.613281 94.484375,411.734375 93.695312,407.898438 C91.152344,391.285156 94.886719,374.316406 104.175781,360.308594 C105.816406,367.835938 108.101562,375.207031 111,382.339844 C112.015625,384.988281 113.042969,387.648438 114.003906,390.371094 C117.398438,399.246094 119.246094,408.640625 119.464844,418.140625 C119.539062,435.449219 111.460938,451.785156 97.664062,462.238281 C94.535156,464.324219 93.140625,468.214844 94.230469,471.8125 C95.320312,475.414062 98.640625,477.875 102.398438,477.871094 C104.960938,477.871094 160.84375,477.386719 176.332031,437.636719 C181.757812,439.9375 186.308594,443.902344 189.328125,448.960938 C192.859375,457.257812 192.496094,466.699219 188.339844,474.699219 C187.421875,476.988281 187.542969,479.5625 188.664062,481.757812 C189.789062,483.953125 191.808594,485.554688 194.203125,486.148438 C197.34375,486.835938 200.550781,487.160156 203.765625,487.113281 C224.699219,486.570312 244.105469,476.058594 256,458.824219 C267.894531,476.058594 287.300781,486.570312 308.234375,487.113281 C311.449219,487.164062 314.65625,486.839844 317.796875,486.148438 C320.191406,485.554688 322.210938,483.953125 323.335938,481.757812 C324.457031,479.5625 324.578125,476.988281 323.660156,474.699219 C319.507812,466.695312 319.144531,457.257812 322.671875,448.960938 C325.691406,443.902344 330.242188,439.9375 335.667969,437.636719 C351.15625,477.386719 407.039062,477.871094 409.601562,477.871094 C413.359375,477.875 416.679688,475.414062 417.769531,471.8125 C418.859375,468.214844 417.464844,464.324219 414.335938,462.238281 C400.570312,451.757812 392.5,435.441406 392.535156,418.140625 C392.75,408.65625 394.585938,399.277344 397.96875,390.414062 C398.933594,387.683594 399.957031,385.019531 400.972656,382.375 C403.878906,375.222656 406.160156,367.835938 407.800781,360.292969 C417.191406,374.265625 420.941406,391.273438 418.304688,407.898438 C417.539062,411.726562 419.46875,415.585938 422.992188,417.269531 C426.515625,418.953125 430.730469,418.03125 433.230469,415.03125 C448.207031,398.015625 459.46875,378.0625 466.296875,356.441406 C468.179688,365.511719 469.199219,374.742188 469.332031,384.003906 C469.335938,387.839844 471.890625,391.203125 475.585938,392.226562 C479.28125,393.25 483.203125,391.6875 485.179688,388.398438 C501.433594,361.183594 510.652344,330.34375 512,298.671875 C512,220.480469 455.550781,188.644531 423.695312,176.902344 C438.101562,175.914062 452.472656,179.265625 464.957031,186.527344 C467.960938,188.324219 471.757812,188.105469 474.535156,185.972656 C477.3125,183.839844 478.503906,180.226562 477.542969,176.859375 C463.445312,127.519531 427.511719,119.847656 409.8125,119.191406 L409.8125,119.148438 C415.589844,108.199219 440.34375,97.628906 454.597656,93.546875 C457.980469,92.582031 460.421875,89.636719 460.746094,86.132812 C461.070312,82.628906 459.210938,79.28125 456.0625,77.710938 C427.40625,63.207031 393.421875,63.847656 365.328125,79.417969 C371.21875,64.058594 397.753906,43.089844 414.105469,32.84375 C417.1875,30.917969 418.710938,27.25 417.902344,23.707031 C417.097656,20.164062 414.132812,17.523438 410.523438,17.125 C372.824219,11.542969 334.574219,22.75 305.851562,47.792969 C307.707031,35.371094 313.25,23.792969 321.765625,14.5625 C324.382812,11.941406 325.011719,7.925781 323.316406,4.632812 C321.617188,1.335938 317.992188,-0.488281 314.332031,0.117188 C312.398438,0.433594 274.355469,7.234375 256,36.929688 C237.644531,7.234375 199.601562,0.433594 197.667969,0.117188 C194.011719,-0.492188 190.382812,1.324219 188.683594,4.617188 C186.980469,7.90625 187.597656,11.917969 190.207031,14.546875 C198.738281,23.789062 204.292969,35.386719 206.148438,47.828125 C177.421875,22.769531 139.167969,11.550781 101.460938,17.125 C97.851562,17.523438 94.886719,20.164062 94.078125,23.707031 C93.273438,27.25 94.796875,30.917969 97.878906,32.84375 C114.261719,43.082031 140.765625,64.089844 146.652344,79.417969 C118.5625,63.839844 84.578125,63.203125 55.917969,77.710938 C52.769531,79.28125 50.910156,82.628906 51.234375,86.132812 C51.5625,89.636719 54.003906,92.582031 57.386719,93.546875 C71.636719,97.636719 96.390625,108.207031 102.167969,119.148438 L102.167969,119.191406 C84.464844,119.847656 48.539062,127.519531 34.441406,176.859375 C33.476562,180.226562 34.667969,183.839844 37.445312,185.972656 C40.222656,188.105469 44.023438,188.324219 47.027344,186.527344 C59.507812,179.269531 73.878906,175.917969 88.285156,176.902344 C56.449219,188.644531 -2.84217094e-14,220.480469 -2.84217094e-14,298.671875 C1.347656,330.34375 10.566406,361.183594 26.820312,388.398438 C28.796875,391.683594 32.71875,393.246094 36.410156,392.222656 Z M387.132812,457.632812 C371.832031,453.6875 353.664062,444.832031 349.695312,425 C349.25,422.773438 347.941406,420.820312 346.050781,419.5625 C344.160156,418.308594 341.847656,417.855469 339.625,418.308594 C326.386719,421.175781 314.867188,429.265625 307.679688,440.742188 C303.011719,449.703125 301.796875,460.0625 304.265625,469.859375 C294.101562,468.792969 277.453125,463.03125 263.246094,439.34375 C263.183594,439.234375 263.066406,439.183594 262.996094,439.070312 C262.65625,438.617188 262.269531,438.195312 261.84375,437.816406 C261.46875,437.394531 261.050781,437.011719 260.597656,436.671875 C260.496094,436.605469 260.4375,436.484375 260.328125,436.425781 C259.96875,436.265625 259.597656,436.136719 259.21875,436.035156 C258.210938,435.492188 257.070312,435.253906 255.933594,435.351562 C255.390625,435.328125 254.847656,435.355469 254.308594,435.4375 C253.722656,435.574219 253.148438,435.773438 252.605469,436.035156 C252.226562,436.136719 251.859375,436.265625 251.503906,436.425781 C251.390625,436.484375 251.339844,436.605469 251.230469,436.671875 C250.777344,437.011719 250.355469,437.394531 249.976562,437.816406 C249.550781,438.195312 249.167969,438.613281 248.832031,439.070312 C248.765625,439.183594 248.644531,439.234375 248.585938,439.34375 C234.359375,463.050781 217.703125,468.800781 207.554688,469.867188 C210.039062,460.074219 208.839844,449.710938 204.1875,440.742188 C197.027344,429.292969 185.5625,421.207031 172.375,418.308594 C167.753906,417.390625 163.265625,420.382812 162.339844,425 C158.386719,444.730469 140.246094,453.585938 124.945312,457.570312 C132.589844,445.847656 136.621094,432.136719 136.535156,418.140625 C136.324219,406.710938 134.152344,395.398438 130.117188,384.707031 C129.101562,381.839844 128.027344,379.03125 126.957031,376.257812 C122.511719,366.855469 120.09375,356.625 119.851562,346.230469 C120.292969,334.5625 124.347656,323.324219 131.457031,314.066406 C142.363281,301.410156 157.523438,293.183594 174.078125,290.933594 C184.703125,289.058594 195.527344,288.570312 206.277344,289.480469 C213.433594,306.996094 228.90625,319.742188 247.464844,323.417969 L247.464844,341.339844 C247.710938,343.648438 246.777344,345.929688 244.984375,347.40625 C238.652344,352.613281 222.027344,351.433594 214.996094,350.042969 C210.421875,349.226562 206.035156,352.21875 205.128906,356.773438 C204.21875,361.332031 207.125,365.777344 211.660156,366.777344 C217.089844,367.804688 222.605469,368.324219 228.128906,368.328125 C237.949219,368.910156 247.6875,366.207031 255.804688,360.648438 C255.871094,360.589844 255.921875,360.503906 256,360.445312 C256.078125,360.386719 256.128906,360.589844 256.195312,360.648438 C264.3125,366.207031 274.050781,368.910156 283.871094,368.328125 C289.394531,368.324219 294.910156,367.804688 300.339844,366.777344 C304.960938,365.84375 307.949219,361.339844 307.015625,356.71875 C306.082031,352.097656 301.582031,349.109375 296.960938,350.042969 C289.945312,351.441406 273.375,352.652344 266.992188,347.414062 C265.203125,345.929688 264.28125,343.648438 264.535156,341.339844 L264.535156,323.417969 C283.09375,319.742188 298.566406,306.988281 305.722656,289.472656 C316.476562,288.5625 327.300781,289.050781 337.929688,290.925781 C354.492188,293.160156 369.667969,301.378906 380.585938,314.03125 C387.695312,323.292969 391.75,334.53125 392.191406,346.195312 C391.949219,356.589844 389.527344,366.820312 385.082031,376.222656 C384.015625,378.996094 382.941406,381.804688 381.925781,384.679688 C377.871094,395.378906 375.683594,406.699219 375.464844,418.140625 C375.390625,432.164062 379.445312,445.898438 387.132812,457.632812 Z M256,307.207031 C236.636719,307.207031 221.867188,289.03125 221.867188,281.605469 C221.875,281.289062 221.925781,280.972656 222.011719,280.667969 C223.148438,278.039062 231.722656,273.074219 256,273.074219 C280.867188,273.074219 290.132812,278.304688 290.132812,281.605469 C290.132812,289.03125 275.363281,307.207031 256,307.207031 Z M112.351562,187.621094 C115.5,187.089844 118.085938,184.84375 119.058594,181.800781 C120.03125,178.761719 119.222656,175.429688 116.964844,173.171875 C99.046875,155.304688 75.253906,157.871094 58.503906,163.09375 C68.488281,144.636719 88.679688,134.082031 109.535156,136.417969 C113.671875,137.105469 117.695312,134.679688 119.023438,130.703125 C121.191406,124.234375 120.550781,117.15625 117.257812,111.1875 C109.273438,99.601562 97.96875,90.707031 84.828125,85.671875 C107.113281,81.847656 129.992188,87.210938 148.257812,100.535156 C150.125,102.03125 152.535156,102.675781 154.898438,102.308594 C157.261719,101.941406 159.363281,100.597656 160.691406,98.609375 C164.5625,92.734375 165.828125,85.523438 164.191406,78.683594 C160.675781,62.332031 142.976562,45.285156 128.09375,33.457031 C158.703125,34.453125 187.304688,48.933594 206.226562,73.015625 C208.101562,75.816406 211.449219,77.246094 214.769531,76.671875 C218.089844,76.097656 220.757812,73.621094 221.585938,70.355469 C225.339844,55.085938 223.746094,38.988281 217.070312,24.753906 C232.425781,31.546875 243.730469,45.117188 247.636719,61.445312 C248.003906,63.421875 249.113281,65.175781 250.742188,66.351562 C250.921875,66.488281 251.023438,66.695312 251.210938,66.820312 C252.152344,67.457031 253.207031,67.898438 254.320312,68.117188 L254.6875,68.117188 C255.671875,68.300781 256.679688,68.300781 257.664062,68.117188 C258.746094,67.894531 259.777344,67.464844 260.691406,66.847656 C261.21875,66.441406 261.695312,65.972656 262.109375,65.457031 C262.4375,65.167969 262.746094,64.855469 263.03125,64.527344 C263.652344,63.59375 264.089844,62.550781 264.320312,61.453125 C268.234375,45.113281 279.554688,31.535156 294.929688,24.753906 C288.25,38.980469 286.648438,55.0625 290.390625,70.328125 C291.214844,73.59375 293.886719,76.070312 297.207031,76.644531 C300.523438,77.222656 303.871094,75.789062 305.75,72.992188 C324.789062,49.082031 353.296875,34.652344 383.835938,33.464844 C368.957031,45.300781 351.300781,62.332031 347.785156,78.691406 C346.144531,85.53125 347.414062,92.746094 351.28125,98.617188 C352.613281,100.605469 354.714844,101.945312 357.078125,102.3125 C359.441406,102.671875 361.84375,102.03125 363.714844,100.546875 C382.027344,87.378906 404.824219,82.042969 427.078125,85.714844 C413.96875,90.746094 402.691406,99.628906 394.726562,111.195312 C391.433594,117.167969 390.792969,124.246094 392.960938,130.710938 C394.304688,134.65625 398.285156,137.070312 402.40625,136.4375 C423.277344,134.074219 443.488281,144.628906 453.476562,163.101562 C436.710938,157.878906 412.902344,155.3125 395.015625,173.179688 C392.757812,175.441406 391.953125,178.773438 392.929688,181.816406 C393.90625,184.859375 396.5,187.101562 399.648438,187.628906 C403.550781,188.277344 494.933594,204.582031 494.933594,298.671875 C494.082031,317.523438 490.113281,336.101562 483.191406,353.652344 C481.136719,340.558594 475.472656,328.292969 466.832031,318.238281 C464.148438,315.5625 460.011719,314.992188 456.703125,316.847656 C453.378906,318.699219 451.664062,322.519531 452.496094,326.234375 C452.558594,326.5 457.097656,348.660156 435.125,383.613281 C432.503906,364.910156 422.832031,347.917969 408.089844,336.117188 C406.144531,324.269531 401.304688,313.085938 393.992188,303.5625 C380.507812,287.574219 361.617188,277.101562 340.914062,274.128906 C329.0625,272.039062 316.996094,271.464844 305,272.421875 C300.375,263.6875 287.429688,256.003906 256,256.003906 C229.59375,256.003906 213.335938,261.484375 207.230469,272.441406 C195.164062,271.460938 183.015625,272.035156 171.09375,274.148438 C150.386719,277.113281 131.492188,287.589844 118.007812,303.578125 C110.695312,313.101562 105.855469,324.285156 103.910156,336.132812 C89.167969,347.9375 79.496094,364.929688 76.875,383.628906 C54.894531,348.644531 59.441406,326.535156 59.476562,326.363281 C60.40625,322.640625 58.742188,318.757812 55.40625,316.867188 C52.066406,314.976562 47.878906,315.546875 45.167969,318.257812 C36.535156,328.300781 30.871094,340.550781 28.816406,353.636719 C21.921875,336.082031 17.953125,317.511719 17.066406,298.671875 C17.066406,204.90625 108.457031,188.277344 112.351562,187.621094 L112.351562,187.621094 Z" id="Shape" fill="#17172B"></path>
            <path d="M179.199219,256.003906 C198.050781,256.003906 213.332031,240.722656 213.332031,221.871094 C213.332031,203.019531 198.050781,187.738281 179.199219,187.738281 C160.347656,187.738281 145.066406,203.019531 145.066406,221.871094 C145.066406,240.722656 160.347656,256.003906 179.199219,256.003906 Z M179.199219,204.804688 C188.625,204.804688 196.265625,212.445312 196.265625,221.871094 C196.265625,231.296875 188.625,238.9375 179.199219,238.9375 C169.773438,238.9375 162.132812,231.296875 162.132812,221.871094 C162.132812,212.445312 169.773438,204.804688 179.199219,204.804688 Z" id="Shape" fill="#17172B"></path>
            <path d="M298.667969,221.871094 C298.667969,240.722656 313.949219,256.003906 332.800781,256.003906 C351.652344,256.003906 366.933594,240.722656 366.933594,221.871094 C366.933594,203.019531 351.652344,187.738281 332.800781,187.738281 C313.949219,187.738281 298.667969,203.019531 298.667969,221.871094 L298.667969,221.871094 Z M349.867188,221.871094 C349.867188,231.296875 342.226562,238.9375 332.800781,238.9375 C323.375,238.9375 315.734375,231.296875 315.734375,221.871094 C315.734375,212.445312 323.375,204.804688 332.800781,204.804688 C342.226562,204.804688 349.867188,212.445312 349.867188,221.871094 Z" id="Shape" fill="#17172B"></path>
            <path d="M144.558595,173.949219 C144.73047,173.871094 159.773439,165.925781 174.88672,183.898438 C176.847657,186.230469 179.906251,187.339844 182.906251,186.808594 C185.910157,186.277344 188.398439,184.183594 189.437501,181.316406 C190.48047,178.453125 189.910157,175.25 187.94922,172.914062 C168.734376,150.070312 145.804689,153.800781 136.35547,158.980469 C132.222657,161.246094 130.710939,166.429688 132.972657,170.566406 C135.238282,174.699219 140.425782,176.210938 144.558595,173.949219 Z" id="Path" fill="#17172B" transform="translate(160.936779, 171.003955) rotate(-40.000000) translate(-160.936779, -171.003955) "></path>
            <path d="M330.375001,186.945312 C332.898439,186.945312 335.29297,185.832031 336.91797,183.898438 C351.425782,166.625 365.66797,173.136719 367.312501,173.992188 C371.460939,176.234375 376.63672,174.691406 378.882813,170.546875 C381.125001,166.402344 379.582032,161.222656 375.437501,158.980469 C366.050782,153.800781 343.070313,150.070312 323.85547,172.914062 C321.718751,175.453125 321.246095,179 322.644532,182.007812 C324.04297,185.015625 327.054689,186.941406 330.375001,186.945312 Z" id="Path" fill="#17172B" transform="translate(350.880780, 171.006890) rotate(40.000000) translate(-350.880780, -171.006890) "></path>
        </g>
    </g>
</svg>